<svg width="3986" height="2222" viewBox="0 0 3986 2222" fill="none" xmlns="http://www.w3.org/2000/svg">
<path fill-rule="evenodd" clip-rule="evenodd" d="M0 2222H3977V0H0V2222Z" fill="white"/>
<path fill-rule="evenodd" clip-rule="evenodd" d="M3281.91 760.996V542.314L3060.08 421.602L3059.99 646.748L3281.91 760.996Z" fill="#FDEAB2"/>
<path fill-rule="evenodd" clip-rule="evenodd" d="M3060.08 421.601L3281.91 542.314L3824.9 252.46L3600.16 133.579L3060.08 421.601Z" fill="#FDDE87"/>
<path fill-rule="evenodd" clip-rule="evenodd" d="M3281.91 542.314L3824.9 252.46V471.439L3281.91 760.996V542.314Z" fill="#FDD86B"/>
<path fill-rule="evenodd" clip-rule="evenodd" d="M3258.4 2195.63L3756.43 1929.83V2125.13L3579.26 2219.69H3258.4V2195.63Z" fill="#FDD86B"/>
<path fill-rule="evenodd" clip-rule="evenodd" d="M3756.43 1626.35H3985.54V2219.69H3756.43V1626.35Z" fill="#FDEAB2"/>
<path fill-rule="evenodd" clip-rule="evenodd" d="M2741.16 1633.44L3024.6 1785.38V1034.77L2741.16 886.294V1633.44Z" fill="#FEF4D9"/>
<path fill-rule="evenodd" clip-rule="evenodd" d="M2741.16 886.294L3024.6 1034.77L3308.04 886.294L3016.88 733.76L2741.16 886.294Z" fill="#FCD356"/>
<path fill-rule="evenodd" clip-rule="evenodd" d="M3308.04 1633.44L3024.6 1785.38V1034.77L3308.04 886.294V1633.44Z" fill="#FDD86B"/>
<path fill-rule="evenodd" clip-rule="evenodd" d="M2916.35 1930.05L3107.13 2032.33V1527.08L2916.35 1427.14V1930.05Z" fill="#FDEAB2"/>
<path fill-rule="evenodd" clip-rule="evenodd" d="M2916.35 1427.14L3107.13 1527.08L3507.42 1317.38L3308.03 1210.46L2916.35 1427.14Z" fill="#FCD356"/>
<path fill-rule="evenodd" clip-rule="evenodd" d="M3107.13 1527.08L3507.42 1317.38V1817.75L3107.13 2032.33V1527.08Z" fill="#FDD86B"/>
<path fill-rule="evenodd" clip-rule="evenodd" d="M3756.43 1948.04V1753.04L3985.45 1626.35L3985.54 1828.01L3756.43 1948.04Z" fill="#FCD356"/>
<path fill-rule="evenodd" clip-rule="evenodd" d="M3985.45 1626.35L3756.43 1753.04L3507.42 1622.59V1376.22L3985.45 1626.35Z" fill="#FDDE87"/>
<path fill-rule="evenodd" clip-rule="evenodd" d="M3756.43 1753.04L3507.42 1622.59V1817.75L3756.43 1948.04V1753.04Z" fill="#FDEAB2"/>
<path fill-rule="evenodd" clip-rule="evenodd" d="M3258.4 2219.69V2195.63L3029.37 2071L3029.31 2219.69H3258.4Z" fill="#FDEAB2"/>
<path fill-rule="evenodd" clip-rule="evenodd" d="M3029.37 2071L3258.4 2195.63L3739.44 1939.29L3507.42 1816.56L3029.37 2071Z" fill="#FDDE87"/>
<path fill-rule="evenodd" clip-rule="evenodd" d="M3424.98 1487.76V1292.76L3195.95 1168.13L3195.87 1369.8L3424.98 1487.76Z" fill="#FDEAB2"/>
<path fill-rule="evenodd" clip-rule="evenodd" d="M3195.95 1168.13L3424.98 1292.76L3985.54 993.53L3753.52 870.814L3195.95 1168.13Z" fill="#FDDE87"/>
<path fill-rule="evenodd" clip-rule="evenodd" d="M3424.98 1292.76L3985.54 993.53V1188.84L3424.98 1487.76V1292.76Z" fill="#FDD86B"/>
<path fill-rule="evenodd" clip-rule="evenodd" d="M3985.54 993.53L3753.52 870.814L3748.4 873.537V0H3985.54V993.53Z" fill="#FDEAB2"/>
<path fill-rule="evenodd" clip-rule="evenodd" d="M3216.64 336.138L3500.08 488.078V0H3216.64V336.138Z" fill="#FEF4D9"/>
<path fill-rule="evenodd" clip-rule="evenodd" d="M3783.51 336.138L3500.08 488.078V0H3783.51V336.138Z" fill="#FDD86B"/>
<path fill-rule="evenodd" clip-rule="evenodd" d="M3391.82 632.755L3582.61 735.028V229.78L3391.82 129.838V632.755Z" fill="#FDEAB2"/>
<path fill-rule="evenodd" clip-rule="evenodd" d="M3391.82 129.838L3582.61 229.779L3982.89 20.0822L3945.44 0H3626.52L3391.82 129.838Z" fill="#FCD356"/>
<path fill-rule="evenodd" clip-rule="evenodd" d="M3582.61 229.779L3982.89 20.082V520.447L3582.61 735.028V229.779Z" fill="#FDD86B"/>
<path fill-rule="evenodd" clip-rule="evenodd" d="M2634.08 2121.92V1955.21L2438.29 1848.67L2438.21 2021.07L2634.08 2121.92Z" fill="#FDEAB2"/>
<path fill-rule="evenodd" clip-rule="evenodd" d="M2438.29 1848.68L2634.08 1955.21L3113.33 1699.38L2914.97 1594.46L2438.29 1848.68Z" fill="#FDDE87"/>
<path fill-rule="evenodd" clip-rule="evenodd" d="M2634.08 1955.21L3113.33 1699.38V1866.36L2634.08 2121.92V1955.21Z" fill="#FDD86B"/>
<path fill-rule="evenodd" clip-rule="evenodd" d="M3884.24 1615.23V1448.52L3688.44 1341.97L3688.36 1514.38L3884.24 1615.23Z" fill="#FDEAB2"/>
<path fill-rule="evenodd" clip-rule="evenodd" d="M3688.44 1341.97L3884.24 1448.52L3985.54 1394.44V1183.54L3688.44 1341.97Z" fill="#FDDE87"/>
<path fill-rule="evenodd" clip-rule="evenodd" d="M3884.24 1448.52L3985.54 1394.44V1561.22L3884.24 1615.23V1448.52Z" fill="#FDD86B"/>
<path fill-rule="evenodd" clip-rule="evenodd" d="M2763.28 89.4073L3046.72 241.362V0H2763.28V89.4073Z" fill="#FEF4D9"/>
<path fill-rule="evenodd" clip-rule="evenodd" d="M3330.15 89.4073L3046.72 241.362V0H3330.15V89.4073Z" fill="#FDD86B"/>
<path fill-rule="evenodd" clip-rule="evenodd" d="M2411.9 1596.73L2573.4 1510.67L2414.01 1426.37L2252.41 1512.38L2411.9 1596.73Z" fill="#FDEAB2"/>
<path fill-rule="evenodd" clip-rule="evenodd" d="M2411.9 1596.73L2573.4 1510.67V1644.85L2411.9 1730.8V1596.73Z" fill="#FDD86B"/>
<path fill-rule="evenodd" clip-rule="evenodd" d="M2413.91 1596.73L2252.41 1510.67V1644.85L2413.91 1730.8V1596.73Z" fill="#FEF4D9"/>
<path fill-rule="evenodd" clip-rule="evenodd" d="M2874.19 2219.69L2983.89 2161.13L2814.43 2071.51L2536.57 2219.69H2874.19Z" fill="#FDEAB2"/>
<path fill-rule="evenodd" clip-rule="evenodd" d="M2874.19 2219.69L2983.89 2161.13V2219.69H2874.19Z" fill="#FDD86B"/>
<path fill-rule="evenodd" clip-rule="evenodd" d="M2227.35 2219.69L2472.6 2088.77L2274.25 1983.85L1832 2219.69H2227.35Z" fill="#FEF4D9"/>
<path fill-rule="evenodd" clip-rule="evenodd" d="M2227.35 2219.69L2472.6 2088.77V2219.69H2227.35Z" fill="#FDD86B"/>
</svg>
